<svg xmlns="http://www.w3.org/2000/svg" viewBox="0 0 58.37 50.2"><defs><style>.cls-1{fill:#76bd22;opacity:0.5;}.cls-2{opacity:0.75;}.cls-3{fill:#606060;}</style></defs><title>adv1</title><g id="Слой_2" data-name="Слой 2"><g id="Слой_1-2" data-name="Слой 1"><path class="cls-1" d="M12.86,8H33.08a1,1,0,0,1,.54.17l7.32,5.13a.93.93,0,0,1-.53,1.7H18.73a.93.93,0,0,1-.62-.23L12.25,9.64A.93.93,0,0,1,12.86,8Z"/><path class="cls-1" d="M2.74,0H20.22a.8.8,0,0,1,.47.15L27,4.58a.82.82,0,0,1-.47,1.48H7.81a.88.88,0,0,1-.54-.2L2.2,1.42A.81.81,0,0,1,2.74,0Z"/><path class="cls-1" d="M25,16H48.7a.93.93,0,0,1,.62.24l8.58,7.33c.88.75.45,2.43-.62,2.43H31.89a1,1,0,0,1-.72-.33L24.3,18.34C23.54,17.53,24,16,25,16Z"/><g class="cls-2"><path class="cls-3" d="M57.16,50.2H39.76c-2.68,0-5.36,0-8,0A15.31,15.31,0,0,1,29.47,50,2.7,2.7,0,0,1,28,49.14l-7.21-7.28A2.59,2.59,0,0,1,20,39.93q0-11.22,0-22.45c0-.24,0-.49,0-.78.33,0,.59-.05.86-.05H47a2.73,2.73,0,0,1,2.08.85c1.69,1.72,3.41,3.41,5.12,5.11q.63.61,1.29,1.2a5,5,0,0,1,1.74,4.07c0,1.91-.07,3.81-.07,5.72q0,6,0,12c0,1.3,0,2.6,0,3.9C57.21,49.68,57.18,49.91,57.16,50.2Zm-13.59-1v0h9c.5,0,1,0,1.51,0a2,2,0,0,0,2.12-2.14c0-.37,0-.75,0-1.13V32.76c0-1,0-2.1,0-3.15a1.88,1.88,0,0,0-1.74-2,3.82,3.82,0,0,0-.68-.05c-.53,0-1,0-1.58,0-3.33,0-6.66.07-10,.07-2.87,0-5.74-.05-8.62-.07a4.68,4.68,0,0,0-1,.09A1.83,1.83,0,0,0,31,29.39a8.47,8.47,0,0,0-.06,1.13c0,1.8,0,3.6,0,5.41,0,3.18,0,6.37,0,9.55a19.2,19.2,0,0,0,0,2,1.71,1.71,0,0,0,1.54,1.65,7.94,7.94,0,0,0,1.38.09c1.69,0,3.39,0,5.09-.06C40.51,49.16,42,49.17,43.57,49.17Zm-15-.3A4.07,4.07,0,0,0,30,45.65c-.07-1.17,0-2.35,0-3.52l0-13.08c0-.23,0-.46,0-.69a2.12,2.12,0,0,0-.7-1.56c-1.73-1.76-3.44-3.55-5.17-5.31-.59-.6-1.2-1.18-1.82-1.79a4.58,4.58,0,0,1-.54.28A1,1,0,0,0,21,21.1q0,9.18,0,18.37a3,3,0,0,0,.85,2.15c2.12,2.23,4.21,4.49,6.31,6.75C28.33,48.51,28.42,48.68,28.56,48.87Zm27-23.79A.92.92,0,0,0,55.5,25l-7.22-6.72A1.75,1.75,0,0,0,47,17.75c-2.52,0-5,0-7.55,0H37.66c-.22,0-.42,0-.55.23s-.45.75-.68,1.13l.33.35,7,6.44a2.22,2.22,0,0,0,1.59.63h8.24c1.43,0,1.43,0,2-1.31A.22.22,0,0,0,55.59,25.08Zm-13.86.2a2.15,2.15,0,0,0-.18-.24l-7.12-6.83a1.69,1.69,0,0,0-1.24-.5l-8.61,0c-1.11,0-1.11,0-1.5,1a.67.67,0,0,0,0,.16,3.29,3.29,0,0,0,.27.31c2.23,2.21,4.46,4.41,6.68,6.64a2.06,2.06,0,0,0,1.57.63c2.8,0,5.61,0,8.42,0,1.14,0,1.14,0,1.66-1C41.69,25.42,41.7,25.36,41.73,25.28Z"/><path class="cls-3" d="M10,9.07H28.9l3.39,0a1.8,1.8,0,0,1,1.41.55c1,1,1.95,2,2.93,2.95a.91.91,0,0,1,.33.87l-.54,0a.56.56,0,0,1-.58-.28,7.14,7.14,0,0,0-6.25-3.12c-1.84,0-3.69.1-5.53.1-3.71,0-7.42,0-11.13-.06h-.86c.18.23.26.37.36.48l4.3,4.5a3.45,3.45,0,0,1,.26.28.45.45,0,0,1,0,.71c-.29.3-.46.33-.76.08a4.45,4.45,0,0,1-.48-.49c-1-1.11-2-2.23-3-3.34a2.22,2.22,0,0,1-.22-.34c-.37.17-.64.32-.93.43a.71.71,0,0,0-.5.71C11.07,14.1,11,15,11,16c0,4,0,8.05,0,12.07a5.89,5.89,0,0,0,1.47,4c.78.91,1.64,1.74,2.46,2.6.48.5,1,1,1.45,1.49a1.1,1.1,0,0,1,.29,1.11,1.2,1.2,0,0,1-1-.39l-5-5a2.4,2.4,0,0,1-.7-1.76Q10,20,10,9.8C10,9.59,10,9.39,10,9.07Z"/><path class="cls-3" d="M6.76,27.28a1.43,1.43,0,0,1-1.12-.46l-5-4.95A2.15,2.15,0,0,1,0,20.28L0,4.94V1.73c.53,0,1-.11,1.52-.11q8.67,0,17.35,0a3,3,0,0,1,1.22.25,11.38,11.38,0,0,1,4,3,2.5,2.5,0,0,1,.29.41c.19.33.19.39,0,.9a1,1,0,0,1-1.17-.48,7.11,7.11,0,0,0-6.06-3.14c-1.33,0-2.68.09-4,.09-2.36,0-4.73,0-7.1,0-1.23,0-2.47.14-3.7.22,0,0-.06,0-.14.11.13.15.25.31.39.45q1.83,2,3.67,3.88a1.38,1.38,0,0,1,.41,1.17,1.06,1.06,0,0,1-1-.35c-.6-.65-1.2-1.29-1.79-1.94S2.79,4.84,2.23,4.19c-.12-.13-.26-.25-.49-.47A16.83,16.83,0,0,0,1,6.91c0,2,0,3.94,0,5.91s.05,3.9,0,5.84a4.5,4.5,0,0,0,1.25,3.19c.75.82,1.55,1.6,2.32,2.4.6.61,1.19,1.24,1.8,1.85A1.38,1.38,0,0,1,6.76,27.28Z"/><path class="cls-3" d="M51.39,45a2.27,2.27,0,0,1,0-.59.53.53,0,0,1,.29-.33.49.49,0,0,1,.4.18,4.12,4.12,0,0,1,.31.74Z"/><path class="cls-3" d="M47.52,45a4.43,4.43,0,0,1,.18-.72.26.26,0,0,1,.51,0,5.6,5.6,0,0,1,.27.74Z"/></g></g></g></svg>