<svg xmlns="http://www.w3.org/2000/svg" viewBox="0 0 61.94 48.59"><defs><style>.cls-1{fill:#606060;opacity:0.75;}.cls-2{fill:#76bd22;opacity:0.5;}</style></defs><title>adv2</title><g id="Слой_2" data-name="Слой 2"><g id="Слой_1-2" data-name="Слой 1"><path class="cls-1" d="M9.48,4.75c-.22-.66-.1-.89.54-.93s1.26,0,1.89,0l13.84,0A4.77,4.77,0,0,1,28.82,4.9a28.53,28.53,0,0,1,8,10.07A40.77,40.77,0,0,1,40,24.08c.14.61.36,1.2.54,1.8a1.73,1.73,0,0,0,1.13,1.19,6.19,6.19,0,0,0,1.33.34,1.46,1.46,0,0,0,.88-.21,2.07,2.07,0,0,0,1.06-1.87c0-5.64,0-11.28,0-16.92,0-1.76-.06-3.52-.06-5.28a1.8,1.8,0,0,0-.75-1.51c-.42-.32-.85-.61-1.26-.94a3.69,3.69,0,0,1-.42-.51A12.14,12.14,0,0,1,46.05.1c0,.21,0,.43,0,.66V32.4c0,3,0,6,0,8.93a9,9,0,0,0,.12,1.56,2.06,2.06,0,0,0,2,1.81c.31,0,.63,0,.94,0l12.33-.05c.14,0,.28,0,.48,0l.06,1c-.23,0-.41.05-.59.05-5.13,0-10.27,0-15.41,0a.82.82,0,0,1-.81-.45,11.88,11.88,0,0,0-.81-1.19,1.49,1.49,0,0,0-1.1-.66,15.14,15.14,0,0,0-2.12-.11,3.35,3.35,0,0,0-2.56,1.52,4.38,4.38,0,0,0-.28.42,6.86,6.86,0,0,1-10.08,1.82,12.68,12.68,0,0,1-1.57-1.62c-.34-.37-.61-.79-1-1.14a4,4,0,0,0-3.06-1c-1.32,0-2.64,0-4,0a18,18,0,0,0-2.44.1A4.77,4.77,0,0,0,13,45.35a5,5,0,0,0-.41.56,5.41,5.41,0,0,1-4.47,2.64,7.55,7.55,0,0,1-8-6,6.7,6.7,0,0,1,2.69-6.82,7.18,7.18,0,0,1,7.6-.86,6.53,6.53,0,0,1,3.67,4.24c.27.82.49,1.65.73,2.47.06.18.13.35.2.56h8a3.62,3.62,0,0,0,.57,0A1.65,1.65,0,0,0,25.09,41a8,8,0,0,0,.23-.84,8.64,8.64,0,0,1,1.2-2.89,6.61,6.61,0,0,1,6.79-3,7.85,7.85,0,0,1,3.39,1.26,5.64,5.64,0,0,1,2.56,4c.06.35.11.71.2,1a1.94,1.94,0,0,0,1.85,1.54,13.77,13.77,0,0,0,2.13,0A1.54,1.54,0,0,0,45,40.41c0-1.74,0-3.48,0-5.22,0-1.34,0-2.68,0-4,0-1.7-.67-2.46-2.36-2.46-5.08,0-10.15,0-15.23.05l-3.14,0a7.36,7.36,0,0,1-.81-.06,1.86,1.86,0,0,1-1.48-1,22.32,22.32,0,0,0-1.47-2.33,8.61,8.61,0,0,0-5.14-3.27A10.31,10.31,0,0,0,11.74,22a36.75,36.75,0,0,1-4.19.32A9,9,0,0,0,6,22.46a4.08,4.08,0,0,0-3.34,3.77c-.12,1.33-.09,2.67-.12,4,0,.29,0,.59,0,.92H1.46a3.14,3.14,0,0,1-.08-.38,21.25,21.25,0,0,1,0-4.58,8.23,8.23,0,0,1,.31-1.28,5.38,5.38,0,0,1,5-3.88C7.84,21,9,21,10.15,21l.5,0A1.42,1.42,0,0,0,12,19.58a9.47,9.47,0,0,0,.09-1.06q0-5.32,0-10.63A6.75,6.75,0,0,0,12,6.7,2.16,2.16,0,0,0,9.84,4.79ZM39.71,27.46c-.12-.44-.21-.8-.3-1.16a64.15,64.15,0,0,0-2.27-7.58,31,31,0,0,0-6.58-10.6c-.43-.44-.88-.84-1.32-1.26a6.65,6.65,0,0,0-4.83-1.93c-2.24,0-4.48,0-6.73,0H15.42a2,2,0,0,0-2.23,2.21v11.5a4.65,4.65,0,0,0,0,.75A1.73,1.73,0,0,0,15.32,21l.56-.07a3.69,3.69,0,0,1,3.42,1.18,11.17,11.17,0,0,1,1.22,1.59,21.43,21.43,0,0,0,2.36,3,2.47,2.47,0,0,0,1.89.81c4.76,0,9.52,0,14.28,0C39.23,27.5,39.42,27.48,39.71,27.46ZM7.23,47.26c.46-.06.92-.09,1.37-.18a5.91,5.91,0,0,0,4.75-5.84A5.8,5.8,0,0,0,11.26,37a5.52,5.52,0,0,0-6.34-1.08A5.93,5.93,0,0,0,7.23,47.26Zm31.08-5.9a6,6,0,0,0-5.89-6,6.27,6.27,0,0,0-6.09,6.06,6,6,0,0,0,6,5.83A5.75,5.75,0,0,0,38.31,41.36Z"/><circle class="cls-2" cx="9.57" cy="40.19" r="6.5"/><circle class="cls-2" cx="33.57" cy="40.19" r="6.5"/></g></g></svg>