<svg xmlns="http://www.w3.org/2000/svg" viewBox="0 0 44.54 48.54"><defs><style>.cls-1{fill:#76bd22;opacity:0.5;}.cls-2{opacity:0.75;}.cls-3{fill:#606060;}</style></defs><title>adv3</title><g id="Слой_2" data-name="Слой 2"><g id="Слой_1-2" data-name="Слой 1"><circle class="cls-1" cx="25.27" cy="22.87" r="14.5"/><g class="cls-2"><path class="cls-3" d="M22.27,11.62A14.65,14.65,0,0,1,37,26.68c-.08,7.83-6.81,14.2-14.93,14.13a14.6,14.6,0,0,1,.25-29.19Zm14,14.6c-.09-.84-.12-1.53-.24-2.21a2,2,0,0,0-1.77-1.78,4.48,4.48,0,0,0-.81-.1c-.78,0-1.55.05-2.32.13a1.78,1.78,0,0,0-1.79,1.82,5.15,5.15,0,0,0,0,.56c0,.81-.08,1.63-.11,2.44,0,.53-.05,1.05,0,1.57a1.65,1.65,0,0,0,1.13,1.52,7.81,7.81,0,0,0,2.84.39A2.89,2.89,0,0,0,36,28.13C36.13,27.46,36.15,26.76,36.22,26.22Zm-20.73-.44h0c0-.31,0-.63,0-.94s.05-.63,0-.94a1.61,1.61,0,0,0-1.4-1.67,3.6,3.6,0,0,0-.56-.08c-1,0-2,0-3,.1a1.88,1.88,0,0,0-1.87,1.91c-.06.77-.08,1.55-.07,2.32a16.2,16.2,0,0,0,.15,2.31A1.46,1.46,0,0,0,10.3,30.2c1.06,0,2.13.05,3.19,0a1.76,1.76,0,0,0,1.88-1.85C15.44,27.5,15.45,26.64,15.49,25.78Zm6.43.57h0c0-.7,0-1.39,0-2.08a4.17,4.17,0,0,0-.14-.86,1.32,1.32,0,0,0-1-1.06,7,7,0,0,0-3.06-.1,1.82,1.82,0,0,0-1.42,1.36,4.69,4.69,0,0,0-.12,1.12c0,1,0,2.05,0,3.08a7.5,7.5,0,0,0,0,.82,1.76,1.76,0,0,0,1.41,1.57,3.69,3.69,0,0,0,.87.1c.57,0,1.13,0,1.7-.09,1.2-.1,1.69-.59,1.73-1.79C21.94,27.73,21.92,27,21.92,26.35Zm6.32,3.73c.06-.15.09-.18.09-.22,0-2,0-4,0-6a1.62,1.62,0,0,0-1.51-1.65,11.45,11.45,0,0,0-1.94-.07c-1.59.07-2.07.57-2.1,2.18,0,1.06,0,2.13,0,3.2A6.83,6.83,0,0,0,23,29.1a1.46,1.46,0,0,0,1.18,1.09,3.25,3.25,0,0,0,.93.11C26.16,30.25,27.2,30.15,28.24,30.08Zm6.94,1.08a3.2,3.2,0,0,0-.42-.06c-1.47,0-2.94,0-4.4,0a1.51,1.51,0,0,0-1.69,1.28c-.75,2.18-1.48,4.36-2.22,6.54-.05.15-.06.31-.11.52A14.51,14.51,0,0,0,35.18,31.16ZM26.43,13.1a.77.77,0,0,0,0,.18c.76,2.3,1.5,4.61,2.29,6.91a1.64,1.64,0,0,0,1.72,1.19h4.33a2.09,2.09,0,0,0,.35,0C34.39,18.16,30,14,26.43,13.1ZM18.32,39.39a1.34,1.34,0,0,0-.05-.24q-1.35-3.82-2.69-7.65a.53.53,0,0,0-.6-.41c-1.21,0-2.43,0-3.64,0a6.61,6.61,0,0,0-1.76.34C10.9,35,15.1,38.83,18.32,39.39Zm0-26.34A13.94,13.94,0,0,0,12,17.14a12.2,12.2,0,0,0-2.47,4.1h6Zm3.53,27.18c0-.21.05-.33.05-.45q0-3.14,0-6.29a4.62,4.62,0,0,0-.11-1.05A1.54,1.54,0,0,0,20.15,31c-.75,0-1.5.09-2.25.1a1.81,1.81,0,0,0-1,.44.4.4,0,0,0-.16.49,21.87,21.87,0,0,0,1.5,4.39A9.53,9.53,0,0,0,21.88,40.23Zm0-27.42a4.58,4.58,0,0,0-2.57,1.61A10,10,0,0,0,17.11,19a4.4,4.4,0,0,0,0,2.36l.33,0c.9,0,1.8,0,2.7,0a1.71,1.71,0,0,0,1.75-1.81c0-2.09,0-4.19,0-6.28C21.93,13.15,21.9,13,21.89,12.81ZM28,21.24A1.2,1.2,0,0,0,28,21c-.36-1.23-.68-2.47-1.09-3.67a9.73,9.73,0,0,0-3.64-4.85,3.5,3.5,0,0,0-.39-.2v9Zm-5,10a1.29,1.29,0,0,0-.06.28q0,4.19,0,8.36a1.65,1.65,0,0,0,0,.31s0,0,0,0l.09,0a11.33,11.33,0,0,0,3.59-4.49A17.83,17.83,0,0,0,28,31.22Z"/><path class="cls-3" d="M16.72,5a1.34,1.34,0,0,1-.76.76c-.65.29-1.3.59-2,.85C7.94,9,4.13,13.42,2,19.44A20.37,20.37,0,0,0,.89,27.92a21.06,21.06,0,0,0,4.92,12,21.2,21.2,0,0,0,11.92,7.36,21.54,21.54,0,0,0,6.75.34,20.3,20.3,0,0,0,10.4-3.91,21.47,21.47,0,0,0-7.67-38.3C25.8,5,24.39,4.74,23,4.43a4,4,0,0,0-.59,1.23c-.11.24.1.38.24.52.53.57,1.08,1.13,1.61,1.69a1,1,0,0,1,.34.86.61.61,0,0,1-.79-.12c-1.17-1.17-2.34-2.34-3.49-3.53a1.08,1.08,0,0,1,.09-1.53c.7-.79,1.43-1.54,2.16-2.29.33-.35.71-.65,1.06-1a.81.81,0,0,1,.89-.23.94.94,0,0,1-.31.82c-.46.52-.93,1-1.4,1.52L22,3.24l2.46.66c1.78.48,3.59.87,5.33,1.46A20.82,20.82,0,0,1,43.32,19a22.18,22.18,0,0,1-7.16,24.63,22.49,22.49,0,0,1-11.08,4.72,22.41,22.41,0,0,1-10.51-1.29,21.61,21.61,0,0,1-8.18-5A21.15,21.15,0,0,1,1,32.57,22.07,22.07,0,0,1,2.51,15.84,21.77,21.77,0,0,1,13.75,5.69,17.59,17.59,0,0,1,15.83,5,3.38,3.38,0,0,1,16.72,5Z"/></g></g></g></svg>