<svg xmlns="http://www.w3.org/2000/svg" viewBox="0 0 65.36 48.84"><defs><style>.cls-1{opacity:0.75;}.cls-2{fill:#606060;stroke:#fff;stroke-miterlimit:10;stroke-width:0.25px;}.cls-3{fill:#76bd22;opacity:0.5;}</style></defs><title>adv4</title><g id="Слой_2" data-name="Слой 2"><g id="Слой_1-2" data-name="Слой 1"><g class="cls-1"><path class="cls-2" d="M.13,42.93V36.44l2.28-.34a4.12,4.12,0,0,0,.32-1.7c0-.69,0-1.38,0-2.07a14.71,14.71,0,0,1,.12-1.63,4.15,4.15,0,0,1,2.23-3.1L6.25,27v-.13l-6-2a35.07,35.07,0,0,1,0-5.14H1.34c0,.28.08.56.09.85,0,.54,0,1.09,0,1.63a2.22,2.22,0,0,0,1.91,2.24,5.3,5.3,0,0,0,1.87.05c0-.58.14-1.16.15-1.73,0-1.24,0-2.48,0-3.71q0-5.22,0-10.44a5.14,5.14,0,0,1,0-.88c.08-.55.29-.71.85-.7a3.41,3.41,0,0,1,.44.06c.08,1.42,0,2.86.06,4.35.2,0,.38.05.56.05H30.94a1,1,0,0,0,1.12-.94,12.22,12.22,0,0,0,0-1.81c0-.23-.06-.46-.05-.68,0-.67.4-1,1.18-1v.74c0,5.14,0,10.28,0,15.41a1.36,1.36,0,0,0,.65,1.37,5.34,5.34,0,0,1,.51.4c.82-.5,1.69-1,2.49-1.52a2.09,2.09,0,0,0,.84-1.81c0-.65,0-1.3,0-2h1.12V24.8l-6,1.92.81.57a5.44,5.44,0,0,1,2.6,4.62c.06,1.09.07,2.18.1,3.27V36c.41.05.78.08,1.15.14a1.61,1.61,0,0,1,1.51,1.58,5.22,5.22,0,0,1,0,.69c0,1.42,0,2.85,0,4.27a1.31,1.31,0,0,1,0,.22l-.66.1a2.28,2.28,0,0,0-2,1.85,6.83,6.83,0,0,0-.17,1c0,.4-.06.8-.11,1.19a1.7,1.7,0,0,1-1.41,1.57,1.26,1.26,0,0,1-.43.08c-1.55,0-3.1,0-4.64-.09-.95-.05-1.26-.43-1.41-1.39-.07-.45-.09-.91-.13-1.37,0-.27,0-.55-.08-.81a2,2,0,0,0-2.26-2c-1.28,0-2.56,0-3.84,0L13.5,43a4.65,4.65,0,0,0-1.06.11A1.82,1.82,0,0,0,11,44.6a8.68,8.68,0,0,0-.13,1.25c-.05.52-.08,1-.15,1.56A1.26,1.26,0,0,1,9.6,48.55a4.29,4.29,0,0,1-.5.07,23.81,23.81,0,0,1-4.7,0,1.56,1.56,0,0,1-1.58-1.63c0-.33,0-.67,0-1s0-.71,0-1.06A2,2,0,0,0,.86,43Zm34.65-5.32c0-.79,0-1.52,0-2.25s.06-1.76,0-2.64a5.85,5.85,0,0,0-1.91-4.43A2.25,2.25,0,0,1,32,26.46c0-.23,0-.46,0-.69q0-4.45,0-8.93a4.2,4.2,0,0,0-4.26-4.32c-3.63,0-7.25,0-10.88-.06-2,0-4.07,0-6.1.1a3.81,3.81,0,0,0-3.48,2.38,5.2,5.2,0,0,0-.46,2.33q0,4.14,0,8.3a4.37,4.37,0,0,1-1,3.08,6.84,6.84,0,0,0-1.66,4.5c0,1.24,0,2.47,0,3.71,0,.24,0,.48,0,.74l-2.44.23v3.56H37.51L37.35,38Zm-2.85,9.85h0c.4,0,.8,0,1.2,0a1.59,1.59,0,0,0,1.6-1.54,4.79,4.79,0,0,0,0-1.07A1.83,1.83,0,0,0,33,43.07a11.7,11.7,0,0,0-2.44.08,1.59,1.59,0,0,0-1.41,1.48,5.17,5.17,0,0,0,0,1.18,1.72,1.72,0,0,0,1.74,1.65C31.22,47.48,31.58,47.46,31.93,47.46ZM6.47,43.11l-.63,0a1.45,1.45,0,0,0-1.47,1.2,7.48,7.48,0,0,1-.31,1.28,1.4,1.4,0,0,0,.57,1.83.67.67,0,0,0,.72.18c.32-.1.66-.12,1-.2l2.6-.68c.33-.09.6-.29.6-.65a17.85,17.85,0,0,0-.12-1.93.76.76,0,0,0-.61-.64A8.13,8.13,0,0,0,6.47,43.11Z"/><path class="cls-2" d="M65.12,42.88l-.49,0a2.34,2.34,0,0,0-2.27,2.33c0,.46,0,.93,0,1.39a1.63,1.63,0,0,1-1.58,1.94,6.34,6.34,0,0,1-1.06.1c-1.32,0-2.64,0-4-.12-.94-.07-1.22-.39-1.36-1.34a10.9,10.9,0,0,1-.06-1.51c0-1.9-.79-2.68-2.69-2.68-1.4,0-2.8.08-4.21.09-1.74,0-3.48,0-5.22,0-.16,0-.32,0-.48,0-.13-.66-.13-.63.47-.74a69.06,69.06,0,0,1,12.11-.62l6.92,0h.69A2,2,0,0,0,64,39.63c0-.9,0-1.8,0-2.71q0-5.22,0-10.44c0-2,0-4,0-6a8.55,8.55,0,0,0-.22-1.74,3,3,0,0,0-1.37-1.88c-3.76-2.53-7.5-5.08-11.25-7.61L39.71,1.62,39,1.17V15.09l-1.39.16c0-.32,0-.58,0-.84,0-4,0-7.93,0-11.89V1.85c-.08-.09-.09-.11-.11-.12a.09.09,0,0,0-.05,0,1.55,1.55,0,0,0-.31,0H1.87a1,1,0,0,0-.25,0,.91.91,0,0,0-.18.11v.56c0,2.06,0,4.11,0,6.17,0,1.74,0,3.48.05,5.22,0,.21,0,.42,0,.63-.08.82-.32,1-1.19.77V.21C.41.2.56.16.72.16l19.19,0,15.6,0a14.41,14.41,0,0,1,5,.77,12.06,12.06,0,0,1,2.78,1.45c5.81,4.16,11.82,8,17.76,12,1,.63,1.87,1.29,2.83,1.89a2.72,2.72,0,0,1,1.34,2.52c0,7.46,0,14.93,0,22.39,0,.44,0,.88,0,1.32A2.18,2.18,0,0,1,65.12,42.88Zm-6.76,4.59h0c.38,0,.75,0,1.13,0A1.63,1.63,0,0,0,61,46.24a3.38,3.38,0,0,0,0-1.73,1.6,1.6,0,0,0-1.47-1.42,11.52,11.52,0,0,0-2.49,0,1.5,1.5,0,0,0-1.38,1.47,5.31,5.31,0,0,0,0,1.38,1.65,1.65,0,0,0,1.6,1.48C57.65,47.49,58,47.47,58.36,47.47Z"/><path class="cls-2" d="M9.7,18.43H28.94v7.88c-.44,0-.87.1-1.3.11h-6.1l-10.12,0a7.49,7.49,0,0,1-.82,0c-.62-.07-.84-.3-.91-.92a4.1,4.1,0,0,1,0-.5l0-5.84Zm9.64,1.14v0h-4c-.9,0-1.81-.05-2.7,0A1.71,1.71,0,0,0,11,21.19a7,7,0,0,0,.08,2.5,1.69,1.69,0,0,0,1.42,1.42,5.12,5.12,0,0,0,.87.08H24.12c.54,0,1.09,0,1.63,0a2,2,0,0,0,2-1.59,5.85,5.85,0,0,0,0-2.5,1.78,1.78,0,0,0-1.54-1.46,6,6,0,0,0-1.12-.06Z"/><path class="cls-2" d="M26,31v6.56l-.57,0H24.9a5.45,5.45,0,0,1-.09-.62c0-.78,0-1.55,0-2.33a8.34,8.34,0,0,0,0-1,1.78,1.78,0,0,0-1.9-1.7c-.88,0-1.76,0-2.64,0-1.28,0-2.55,0-3.83,0a5.62,5.62,0,0,0-1.3.13,1.79,1.79,0,0,0-1.38,1.61,5.18,5.18,0,0,0,0,.88c0,.86,0,1.72,0,2.58a2.66,2.66,0,0,1-.06.45h-1V31C13.28,30.86,25.45,30.86,26,31Z"/><path class="cls-2" d="M6.94,36.47H9.37v1a7.68,7.68,0,0,1-2.08.19.37.37,0,0,1-.4-.45C6.91,37,6.92,36.75,6.94,36.47Z"/><path class="cls-2" d="M29.37,37.47l-.08-1h2.37v1Z"/></g><rect class="cls-3" x="12.42" y="16.79" width="18" height="7"/></g></g></svg>