<svg xmlns="http://www.w3.org/2000/svg" viewBox="0 0 67.89 42.05"><defs><style>.cls-1{fill:#76bd22;opacity:0.5;}.cls-2{opacity:0.75;}.cls-3{fill:#606060;stroke:#fff;stroke-miterlimit:10;stroke-width:0.25px;}</style></defs><title>adv5</title><g id="Слой_2" data-name="Слой 2"><g id="Слой_1-2" data-name="Слой 1"><polygon class="cls-1" points="34.89 0 67.89 13 67.89 38 34.89 38 34.89 0"/><g class="cls-2"><path class="cls-3" d="M.13,41.92V1.84a13.32,13.32,0,0,1,2.93-.39c4.92,0,9.85,0,14.78,0,3.41,0,6.83-.07,10.24-.11a22.92,22.92,0,0,1,8.48,1.55c3.7,1.41,7.37,2.89,11.06,4.33l15.79,6.17c.23.09.47.18.7.29a1.81,1.81,0,0,1,1.15,1.78c0,1.89,0,3.77,0,5.66,0,.21,0,.42,0,.63v14c0,1.51,0,3,0,4.53a5.24,5.24,0,0,1-.08.88.67.67,0,0,1-.6.63c-.24,0-.49.08-.74.1s-.55,0-.82,0H.13ZM32.07,2.75a13,13,0,0,0-.37,2.58q0,15.94,0,31.89c0,.48,0,1,0,1.44a1.89,1.89,0,0,0,1.94,1.91H58.55c1.06,0,2.13,0,3.2,0a2,2,0,0,0,2.14-1.92,4.32,4.32,0,0,0,0-.5c0-2-.05-3.94-.05-5.91,0-3.44,0-6.88,0-10.32,0-1.44.07-2.89.06-4.33a3.51,3.51,0,0,0-2.12-3.37,9.28,9.28,0,0,0-.86-.37L50.77,9.9,32.77,3ZM12.28,13.55a2.15,2.15,0,0,1-.06-.37c0-.6.08-.72.68-.83l.19,0a1.88,1.88,0,0,0,1.47-.84,2.49,2.49,0,0,0,.55-1.63c0-1.6,0-3.19,0-4.78,0-1.43-.56-2.49-2.52-2.45-2.8.06-5.61,0-8.42,0-.46,0-.93,0-1.38,0a1.8,1.8,0,0,0-1.7,1.72,7.48,7.48,0,0,0,0,.82V37c0,.51,0,1,0,1.51a1.94,1.94,0,0,0,2.19,2.11H6.18c2.33,0,4.65,0,7,0A1.59,1.59,0,0,0,15,39a13.76,13.76,0,0,0,.12-1.81c0-1,0-2,0-3a2.27,2.27,0,0,0-2.35-2.35l-.46,0a2.84,2.84,0,0,1-.05-.38,4.92,4.92,0,0,1,0-.52c.23,0,.43,0,.63-.08a2.38,2.38,0,0,0,2.19-2.29,3.37,3.37,0,0,0,0-.44c0-1.26,0-2.52,0-3.77,0-2.48,0-4.95,0-7.42A6.76,6.76,0,0,0,15,15.29a2.13,2.13,0,0,0-2-1.69ZM19.1,31.83l-.36,0a2.24,2.24,0,0,0-2.41,2.47c0,1.46.16,2.92,0,4.39a1.57,1.57,0,0,0,.05.37,1.64,1.64,0,0,0,1.4,1.42,4.8,4.8,0,0,0,1,.06h7.86c.63,0,1.26,0,1.89,0a1.72,1.72,0,0,0,1.77-1.74c0-.23,0-.46,0-.7,0-2.53,0-5.07,0-7.6q0-12.67,0-25.34c0-.27,0-.55,0-.82a1.74,1.74,0,0,0-1.75-1.71h-.75l-5.91,0c-1.18,0-2.35,0-3.52,0a1.9,1.9,0,0,0-2.06,2.1c0,.88,0,1.76,0,2.64s0,1.89.08,2.82a2.15,2.15,0,0,0,2,2.13c.81.14,1,.48.64,1.33l-.79.06a1.94,1.94,0,0,0-1.92,2.07v.51c0,1.3,0,2.6,0,3.9,0,2.66.07,5.32.08,8a2.26,2.26,0,0,0,.63,1.59,2.49,2.49,0,0,0,1.47.88C19.25,30.82,19.35,31.08,19.1,31.83Z"/><path class="cls-3" d="M39.54,36.9a1.84,1.84,0,0,1-.63-1.45c0-3.54,0-7.09,0-10.63,0-4.36,0-8.72,0-13.08a2.07,2.07,0,0,1,.58-1.43A1.91,1.91,0,0,1,40,11.57c0,1.51.06,3,.07,4.53q0,8.87,0,17.73c0,.63,0,1.26,0,1.89A1.56,1.56,0,0,1,39.54,36.9Z"/><path class="cls-3" d="M47.79,13.13a1.51,1.51,0,0,1,.64,1.26c0,4.08,0,8.17,0,12.26,0,3,0,6,0,9A1.68,1.68,0,0,1,47.86,37a1.92,1.92,0,0,1-.68-1.48c0-3.31,0-6.62,0-9.93,0-2.29,0-4.57,0-6.86,0-1.44.06-2.89.07-4.33A1.73,1.73,0,0,1,47.79,13.13Z"/><path class="cls-3" d="M56.25,17.33a1.52,1.52,0,0,1,.49,1.18c0,3.59.07,7.17.08,10.76,0,2.2-.06,4.4-.07,6.6A1.49,1.49,0,0,1,56.21,37a1.38,1.38,0,0,1-.58-1.14c0-2.45,0-4.9,0-7.36,0-1.61,0-3.22,0-4.84s0-3.48.05-5.22A1.58,1.58,0,0,1,56.25,17.33Z"/></g></g></g></svg>