<svg xmlns="http://www.w3.org/2000/svg" viewBox="0 0 8.35 13.88"><defs><style>.cls-1{fill:#fff;}</style></defs><title>button-more_arrow</title><g id="Слой_2" data-name="Слой 2"><g id="Слой_1-2" data-name="Слой 1"><path class="cls-1" d="M0,0A30.85,30.85,0,0,1,4,2.71c1.26,1,2.46,2,3.63,3.09l.72.67-.68.74C7.1,7.83,6.51,8.43,5.91,9s-1.2,1.17-1.84,1.73-1.28,1.1-1.94,1.64-1.35,1-2.1,1.49A24.25,24.25,0,0,1,1.4,11.7c.49-.7,1-1.38,1.51-2S4,8.36,4.52,7.71s1.12-1.26,1.7-1.87l0,1.41C5.11,6.16,4,5,3,3.82A30.8,30.8,0,0,1,0,0Z"/></g></g></svg>