<svg xmlns="http://www.w3.org/2000/svg" viewBox="0 0 50.08 50.08"><defs><style>.cls-1{fill:#c3e86c;}.cls-2{fill:#fff;fill-rule:evenodd;}</style></defs><title>fb</title><g id="Слой_2" data-name="Слой 2"><g id="Слой_1-2" data-name="Слой 1"><rect class="cls-1" width="50.08" height="50.08"/><path class="cls-2" d="M22,24.06H19.89V21H22c0-1,0-2,0-2.89.06-2.12,1.12-3.46,3.19-3.67a32.85,32.85,0,0,1,4.51.13c-.21,1.22-.39,2.22-.57,3.23-.66-.05-1.26-.14-1.86-.14-.94,0-1.31.38-1.33,1.3,0,.5,0,1,0,1.49,0,.14,0,.27,0,.52h3.27c-.09,1.1-.16,2.08-.24,3.13H25.93v1c0,2.9,0,5.81,0,8.72,0,.62-.17.83-.8.8-1,0-2,0-3.17,0Z"/></g></g></svg>