<svg xmlns="http://www.w3.org/2000/svg" viewBox="0 0 9.81 20.19"><defs><style>.cls-1{fill:#fff;fill-rule:evenodd;}</style></defs><title>fb_icon</title><g id="Слой_2" data-name="Слой 2"><g id="Слой_1-2" data-name="Слой 1"><path class="cls-1" d="M2.08,9.69H0V6.61H2.1c0-1,0-2,0-2.89C2.17,1.6,3.23.26,5.29.05A33,33,0,0,1,9.81.18c-.22,1.23-.39,2.22-.57,3.23C8.58,3.36,8,3.27,7.38,3.27c-.94,0-1.31.39-1.33,1.3,0,.5,0,1,0,1.5,0,.13,0,.27,0,.52H9.34c-.08,1.09-.15,2.07-.23,3.12H6v1c0,2.91,0,5.81,0,8.72,0,.62-.18.83-.8.8-1-.05-2,0-3.18,0Z"/></g></g></svg>