<svg xmlns="http://www.w3.org/2000/svg" viewBox="0 0 223.86 152.29"><defs><style>.cls-1{opacity:0.1;}.cls-2{fill:#fff;fill-rule:evenodd;}</style></defs><title>footer_logo</title><g id="Слой_2" data-name="Слой 2"><g id="Слой_1-2" data-name="Слой 1"><g class="cls-1"><path class="cls-2" d="M76.13,31.16a2.53,2.53,0,0,0-.73.65L58.91,48.32c-.79.8-.6.8-1.42,0L43.3,34.09c-.79-.8-.78-.59,0-1.35l32-32c1-1,.88-.93,1.79,0q16,16,32,32c.74.74.78.58,0,1.36L94.72,48.36c-.11.11-.22.21-.32.32s-.42.31-.67,0-.33-.33-.5-.51L76.87,31.81A2.71,2.71,0,0,0,76.13,31.16Z"/><path class="cls-2" d="M93.74,103.33,109.43,119a4.57,4.57,0,0,1-.68.73L89.39,139.09q-6.27,6.28-12.52,12.59c-.8.82-.63.8-1.42,0-4.74-4.73-9.54-9.4-14.18-14.23-5.87-6.11-12-12-17.88-18l-.32-.33c-.19-.17-.23-.34,0-.53s.3-.3.44-.45l14.2-14.21c.11-.11.22-.21.32-.33.27-.32.52-.3.82,0,.94,1,1.9,1.92,2.85,2.88.36.37.7.75,1.06,1.11l12.6,12.62.26.26c.68.69.6.64,1.25,0q8.14-8.15,16.29-16.32A7,7,0,0,0,93.74,103.33Z"/><path class="cls-2" d="M0,76.21a2.86,2.86,0,0,1,.71-.8Q14.56,61.55,28.4,47.68l4.44-4.48c.47-.48.49-.48,1,0l14.58,14.6c.53.53.53.55-.11,1.18L32.11,75.19c-.88.88-.88.88,0,1.75q8.16,8.15,16.3,16.32c.74.73.79.6,0,1.37q-7.14,7.14-14.26,14.28c-.11.1-.22.2-.32.31-.22.26-.44.29-.67,0s-.34-.34-.51-.51C27.27,103.34,22,97.82,16.46,92.57,11.08,87.47,6,82.12.66,77A3.13,3.13,0,0,1,0,76.21Z"/><path class="cls-2" d="M172.38,94l-26-29-.19.07V85.38a24,24,0,0,0,.3,4.48,3,3,0,0,0,2.8,2.8c.22,0,.49,0,.62.2,0,.21-.17.2-.27.21-.87.08-7.56,0-8.08-.09,0-.28.16-.26.33-.29l.8-.15a2.55,2.55,0,0,0,2-2,8.51,8.51,0,0,0,.36-1.94c.05-1.23.12-2.46.13-3.69,0-6.78,0-13.57,0-20.36a2.14,2.14,0,0,0-.66-1.68c-.54-.52-1-1.09-1.54-1.64a5.45,5.45,0,0,0-2.77-1.58c-.28-.06-.6,0-.77-.33.14-.3.38-.21.57-.21,1.74,0,3.48,0,5.22,0a1.24,1.24,0,0,1,1,.48q12.3,13.77,24.62,27.53l.48.52c.31-.14.18-.38.18-.55q0-11,0-21.89c0-.81-.09-1.62-.15-2.43a3.18,3.18,0,0,0-2.92-3.22c-.26,0-.6.06-.83-.23a46.08,46.08,0,0,1,8.55,0c-.19.32-.53.25-.79.31-1.91.45-2.62,1.26-2.76,3.23,0,.66,0,1.32,0,2q0,14,0,27.92A2.65,2.65,0,0,1,172.38,94Z"/><path class="cls-2" d="M138.05,87.64a2.71,2.71,0,0,1-.12,1.24c-.21,1.09-.47,2.17-.7,3.25s-.21.94-1.14.94H136q-9.09,0-18.2,0a1.83,1.83,0,0,1-1-.1c0-.31.26-.26.42-.27a3.24,3.24,0,0,0,3.12-3.22c0-.39,0-.78,0-1.17V63.9a6.67,6.67,0,0,0-.44-2.73,2.61,2.61,0,0,0-2.38-1.64c-.25,0-.54.1-.75-.16.07-.32.32-.22.51-.22h19.36c.27,0,.37.14.37.39,0,1.59,0,3.18,0,4.77,0,0-.07.08-.15.15a1.71,1.71,0,0,1-.24-.9,3.51,3.51,0,0,0-2.11-2.73,6.16,6.16,0,0,0-2.53-.58c-2.48,0-5,0-7.46,0-.51,0-.61.21-.61.65q0,7,0,14c0,.36,0,.65.51.63,2.4-.07,4.81.15,7.2-.14.33,0,.65-.13,1-.2a2.83,2.83,0,0,0,2.4-2.47c0-.19,0-.42.28-.51.23.09.18.29.18.45v6.67c0,.12,0,.24,0,.36s-.1.15-.19.15-.12,0-.13-.08a5.08,5.08,0,0,1-.17-.51,3.14,3.14,0,0,0-2.9-2.54c-.3,0-.6-.08-.9-.08-2.19,0-4.38,0-6.58,0-.63,0-.65,0-.65.65,0,3.9,0,7.81,0,11.71a4.56,4.56,0,0,0,.2,1.33,2,2,0,0,0,2,1.64c2.32.07,4.63.13,6.93,0a4.88,4.88,0,0,0,4.27-2.88A5.14,5.14,0,0,1,138.05,87.64Z"/><path class="cls-2" d="M112,58.31v7.28c-.43-.19-.38-.55-.43-.8a7.55,7.55,0,0,0-1.91-3.42A6.52,6.52,0,0,0,104,59.43c-4.14.42-6.21,3.88-5.94,7.74A6.84,6.84,0,0,0,101,72.32a39.18,39.18,0,0,0,4.37,2.7,48.5,48.5,0,0,1,5.07,3.26,7.86,7.86,0,0,1,3.16,8.26,8.25,8.25,0,0,1-6,6.68,13.66,13.66,0,0,1-9.76-.6,9.87,9.87,0,0,0-1.75-.71c-.68-.16-.92,0-1.14.63-.1.32-.17.64-.25,1a.25.25,0,0,1-.27.19c-.13,0-.18-.14-.18-.27s0-.3,0-.45v-7a4.87,4.87,0,0,1,0-.54.21.21,0,0,1,.15-.2.25.25,0,0,1,.28.17c.08.22.14.46.21.69a8.67,8.67,0,0,0,8.92,6.66A8,8,0,0,0,108,91.66a5.47,5.47,0,0,0,2.57-4.42,6.55,6.55,0,0,0-2.32-5.86,26.56,26.56,0,0,0-4.41-3c-1.31-.73-2.63-1.44-3.9-2.24a11,11,0,0,1-3.69-3.51A9.24,9.24,0,0,1,98.61,60.5a11,11,0,0,1,8.27-2,13.4,13.4,0,0,1,2.72.62c1.22.4,1.4.33,2.14-.74C111.77,58.36,111.84,58.36,112,58.31Z"/><path class="cls-2" d="M179.41,59.3a84.23,84.23,0,0,1,10.78,0c-.09.28-.32.2-.52.23a3.17,3.17,0,0,0-3.06,3.54q0,13,0,26c0,2.1,1.06,3.24,3.17,3.58.14,0,.3,0,.39.15s-.17.22-.3.22H179.78a.66.66,0,0,1-.25-.07c-.05-.29.16-.26.33-.29,2.2-.33,3.19-1.41,3.2-3.62q0-13,0-25.95c0-.12,0-.24,0-.36a3,3,0,0,0-2.63-3.16C180.11,59.53,179.75,59.64,179.41,59.3Z"/><path class="cls-2" d="M150.63,100.5a1.6,1.6,0,0,1,.1.87v1.71c-.16,0-.23-.06-.25-.09a3.88,3.88,0,0,0-3.28-2.34,6.14,6.14,0,0,0-3.28.35,4.91,4.91,0,0,0-3,3.18,9.3,9.3,0,0,0,.28,6.51,4.88,4.88,0,0,0,4.23,3.06,11,11,0,0,0,2.43,0c1.13-.12,1.46-.48,1.48-1.61,0-.72,0-1.44,0-2.16,0-1-.13-1.15-1.09-1.49a.19.19,0,0,1-.17-.16c0-.08,0-.1.11-.1h3.66c.06.09.05.17,0,.18-.89.22-1.15.82-1.12,1.68s0,1.8,0,2.7,0,.91-.83,1.06a15.37,15.37,0,0,1-5.37.13,6.8,6.8,0,0,1-5-9.52,6.71,6.71,0,0,1,6.26-4.23,11.48,11.48,0,0,1,3,.27A2.77,2.77,0,0,0,150.63,100.5Z"/><path class="cls-2" d="M166.86,102.92v-3a2,2,0,0,0,1.9.7h7.65a2.24,2.24,0,0,0,2-.58,20.15,20.15,0,0,1,.13,2.87c-.21,0-.24-.08-.25-.19a1.62,1.62,0,0,0-1.49-1.45,20.69,20.69,0,0,0-3.05-.1c-.25,0-.38.14-.38.39s0,.3,0,.46v9.89c0,1.15.17,1.38,1.3,1.83h-3.8c1-.27,1.12-1,1.12-1.89,0-3.27,0-6.54,0-9.8a4.87,4.87,0,0,0,0-.54.32.32,0,0,0-.35-.33,21.18,21.18,0,0,0-2.87,0A2,2,0,0,0,166.86,102.92Z"/><path class="cls-2" d="M197.1,100.46c-.06,1.05-.12,2-.18,2.85-.06,0-.14,0-.15,0a4.92,4.92,0,0,0-8.35-.73,8.06,8.06,0,0,0-.09,9,5,5,0,0,0,5.27,1.91,6.09,6.09,0,0,0,3-1.46c.24.25.08.4-.08.53a6.67,6.67,0,0,1-7.27,1,6.39,6.39,0,0,1-3.93-6,7.12,7.12,0,0,1,5.64-7.25,8.53,8.53,0,0,1,3.66.15c.35.09.7.18,1.05.25A1.51,1.51,0,0,0,197.1,100.46Z"/><path class="cls-2" d="M158.42,113.91v-3c.32.24.31.57.42.82a3.55,3.55,0,0,0,4.47,1.83,2.5,2.5,0,0,0,.76-4,6.46,6.46,0,0,0-1.5-1.14c-.79-.48-1.63-.88-2.39-1.43a3.61,3.61,0,0,1-1.1-4.65,4,4,0,0,1,4.12-2,6.3,6.3,0,0,1,1,.2,1,1,0,0,0,1.15-.24v2.55c-.29-.06-.25-.32-.33-.48a2.6,2.6,0,0,0-2.53-1.69,2.42,2.42,0,0,0-2.34,1.54,2.87,2.87,0,0,0,.51,3.17,7.22,7.22,0,0,0,1.7,1.19c.8.46,1.59.94,2.36,1.48a3.33,3.33,0,0,1-.91,5.75,5.27,5.27,0,0,1-3.44,0,6,6,0,0,1-.6-.2C158.93,113.33,158.93,113.33,158.42,113.91Z"/><path class="cls-2" d="M205,100.24v2.31c0,.08,0,.16,0,.29-.28-.08-.24-.33-.32-.5a2.62,2.62,0,0,0-2.54-1.68,2.44,2.44,0,0,0-2.34,1.54,2.86,2.86,0,0,0,.53,3.18,7.33,7.33,0,0,0,1.69,1.18,23.36,23.36,0,0,1,2.36,1.49,3.09,3.09,0,0,1,1.23,3.17,3.23,3.23,0,0,1-2.15,2.57,5.23,5.23,0,0,1-3.45,0,5.89,5.89,0,0,1-.59-.21c-.78-.29-.78-.3-1.33.3v-3c.35.16.32.5.42.73a3.49,3.49,0,0,0,3.89,2.06,2.2,2.2,0,0,0,1.89-1.47,2.62,2.62,0,0,0-.53-2.69,6.62,6.62,0,0,0-1.49-1.14c-.79-.48-1.65-.88-2.39-1.43a3.61,3.61,0,0,1-1.1-4.65,4,4,0,0,1,4.12-2,5.28,5.28,0,0,1,.88.18A1,1,0,0,0,205,100.24Z"/><path class="cls-2" d="M117.84,100.68a.63.63,0,0,1-.39.28,1.15,1.15,0,0,0-.76,1.2v3.15q0,3.24,0,6.48c0,1.23.38,1.61,1.61,1.64.48,0,1,0,1.44,0a2,2,0,0,0,2.1-1.23A1,1,0,0,1,122,112a.3.3,0,0,1,.08,0c.1,0,.07.13.06.2-.32,1.67-.32,1.67-2,1.67h-5.72a2.09,2.09,0,0,0,.89-2c0-3,0-6.06,0-9.09,0-1-.18-1.72-1.22-2.06Z"/><path class="cls-2" d="M153.18,100.64h3.69a.42.42,0,0,1,0,.14c-1,.27-1.16,1-1.15,1.87,0,2.7,0,5.4,0,8.09,0,.33,0,.66,0,1a2,2,0,0,0,.86,2h-3.16c.41-.3.79-.52.89-1a4.75,4.75,0,0,0,.07-1.25c0-3,0-5.93,0-8.9A1.79,1.79,0,0,0,153.18,100.64Z"/><path class="cls-2" d="M183.05,113.17h-3.21c.42-.28.77-.44.91-.8a2.75,2.75,0,0,0,.12-1c0-2.89,0-5.78,0-8.67,0-.93-.11-1.72-1.21-2h3.91c-.54.28-1.05.37-1.23.83a3.46,3.46,0,0,0-.15,1.27c0,2.86,0,5.73,0,8.59A1.87,1.87,0,0,0,183.05,113.17Z"/><path class="cls-2" d="M92.24,92.79a1.26,1.26,0,0,0-.33-.1A3.58,3.58,0,0,1,89,90.58,17.53,17.53,0,0,1,87.85,88l-10-28.53c-.36-1-.29-.87-1.18-.85-2,0-1.48-.37-2.11,1.54Q70,74.12,65.42,88.06a12,12,0,0,1-1.08,2.46,4.29,4.29,0,0,1-3,2.16c-.16,0-.37,0-.36.33h7.86c-.24-.4-.58-.29-.88-.35a1.85,1.85,0,0,1-1.77-2,6.37,6.37,0,0,1,.31-2.3c.9-2.86,1.83-5.71,2.73-8.57.13-.41.31-.59.75-.59,3.55,0,7.08,0,10.63,0a.71.71,0,0,1,.77.56q1.53,4.66,3.08,9.31a5.8,5.8,0,0,1,.3,1.59,1.66,1.66,0,0,1-1.5,1.9,7.85,7.85,0,0,1-1.61.16c-.15,0-.38,0-.39.23s.27.13.41.13c3.5,0,7,.08,10.52-.06l.06-.06a.28.28,0,0,0,0-.09S92.26,92.8,92.24,92.79ZM69.85,78c1.73-5.39,3.43-10.71,5.14-16h.19c1.82,5.32,3.63,10.64,5.47,16Z"/><path class="cls-2" d="M223.51,92.69a3.58,3.58,0,0,1-3-2.15,18.72,18.72,0,0,1-1.09-2.47Q215.75,77.54,212.05,67c-.9-2.57-1.81-5.15-2.69-7.73-.16-.48-.39-.71-.9-.63a2.16,2.16,0,0,1-.36,0c-1.8.05-1.35-.32-1.93,1.43Q201.58,74,197,87.94a11.89,11.89,0,0,1-1.16,2.63,4.23,4.23,0,0,1-2.9,2.1c-.16,0-.37,0-.39.25s.17.15.28.15h7.29c.15,0,.32,0,.3-.24-.29-.22-.63-.11-.95-.17a1.83,1.83,0,0,1-1.71-2,7,7,0,0,1,.35-2.48c.9-2.8,1.8-5.6,2.67-8.4a.75.75,0,0,1,.83-.62c3.51,0,7,0,10.54,0a.69.69,0,0,1,.79.53c1,3.16,2.09,6.32,3.13,9.48a4.53,4.53,0,0,1,.25,1.59,1.6,1.6,0,0,1-1.46,1.75,7.86,7.86,0,0,1-1.61.17c-.16,0-.36,0-.42.2a102.62,102.62,0,0,0,11,.07C223.81,92.69,223.64,92.7,223.51,92.69ZM201.57,78c0-.66,4.41-14.64,5.12-16.19,1.86,5.46,3.68,10.79,5.53,16.19Z"/><path class="cls-2" d="M130,100.22a7,7,0,0,0-.06,14,7,7,0,0,0,7-7A7,7,0,0,0,130,100.22Zm4.76,10.44a5.2,5.2,0,0,1-9.38.34,8.26,8.26,0,0,1-.81-4.46,7.72,7.72,0,0,1,.77-3.12,5.22,5.22,0,0,1,9.44.37,7.76,7.76,0,0,1,.55,3.45A7.6,7.6,0,0,1,134.74,110.66Z"/></g></g></g></svg>