<svg xmlns="http://www.w3.org/2000/svg" viewBox="0 0 25.63 25.63"><defs><style>.cls-1{opacity:0.5;}.cls-2,.cls-3{fill:#fff;}.cls-3{fill-rule:evenodd;opacity:0.8;}</style></defs><title>ft_fb</title><g id="Слой_2" data-name="Слой 2"><g id="Слой_1-2" data-name="Слой 1"><g class="cls-1"><circle class="cls-2" cx="12.82" cy="12.82" r="12.82"/></g><path class="cls-3" d="M11.37,12.62H10.31V11.05h1.07c0-.53,0-1,0-1.48A1.73,1.73,0,0,1,13,7.69a16.34,16.34,0,0,1,2.3.07c-.1.62-.19,1.13-.29,1.65-.33,0-.64-.07-.95-.07-.48,0-.67.2-.68.66,0,.26,0,.51,0,.77,0,.07,0,.14,0,.26h1.67c-.05.56-.08,1.07-.12,1.6H13.4v.5c0,1.48,0,3,0,4.46,0,.31-.08.42-.4.41-.52,0-1.05,0-1.63,0Z"/></g></g></svg>