<svg xmlns="http://www.w3.org/2000/svg" viewBox="0 0 25.63 25.63"><defs><style>.cls-1{opacity:0.5;}.cls-2,.cls-4{fill:#fff;}.cls-3{opacity:0.8;}.cls-4{fill-rule:evenodd;}</style></defs><title>ft_ok</title><g id="Слой_2" data-name="Слой 2"><g id="Слой_1-2" data-name="Слой 1"><g class="cls-1"><circle class="cls-2" cx="12.82" cy="12.82" r="12.82"/></g><g class="cls-3"><path class="cls-4" d="M13.53,15.57c.58.55,1.15,1.1,1.74,1.64.43.4.62.83.13,1.29s-.87.2-1.23-.19l-1.48-1.57-1.43,1.64a.75.75,0,0,1-1.17.12.77.77,0,0,1,.05-1.24c.6-.58,1.21-1.14,1.81-1.7-.8-.36-1.47-.62-2.09-1-.46-.27-.78-.7-.4-1.26s.8-.37,1.25-.1a3.62,3.62,0,0,0,4.09,0c.46-.28.91-.38,1.24.13a.76.76,0,0,1-.36,1.19C15,14.9,14.35,15.19,13.53,15.57Z"/><path class="cls-4" d="M12.73,13.14a2.84,2.84,0,0,1-2.91-2.9,2.84,2.84,0,0,1,2.93-2.88,2.89,2.89,0,1,1,0,5.78Zm0-4.2a1.42,1.42,0,0,0-1.31,1.29,1.45,1.45,0,0,0,1.36,1.35A1.35,1.35,0,0,0,14,10.28,1.32,1.32,0,0,0,12.71,8.94Z"/></g></g></g></svg>