<svg xmlns="http://www.w3.org/2000/svg" viewBox="0 0 25.63 25.63"><defs><style>.cls-1{opacity:0.5;}.cls-2,.cls-3{fill:#fff;}.cls-3{fill-rule:evenodd;opacity:0.8;}</style></defs><title>ft_tw</title><g id="Слой_2" data-name="Слой 2"><g id="Слой_1-2" data-name="Слой 1"><g class="cls-1"><circle class="cls-2" cx="12.81" cy="12.81" r="12.81"/></g><path class="cls-3" d="M7.56,16.69l3.26-.88a11.45,11.45,0,0,1-1.48-1c-.34-.32-.89-.69-.3-1.27-1.29-1.21-1.51-1.93-.7-2.4a2.65,2.65,0,0,1-.09-3,7.3,7.3,0,0,0,4.89,2.49c0-.35.09-.68.16-1a2.5,2.5,0,0,1,3.36-1.82,2.41,2.41,0,0,0,2.54.06l-.3,1,.48.21h-.31c-.27,1-.6,1.95-.81,2.94A7.15,7.15,0,0,1,8,17C7.88,16.91,7.76,16.81,7.56,16.69Z"/></g></g></svg>