<svg xmlns="http://www.w3.org/2000/svg" viewBox="0 0 25.63 25.63"><defs><style>.cls-1{opacity:0.5;}.cls-2,.cls-4{fill:#fff;}.cls-3{opacity:0.8;}.cls-4{fill-rule:evenodd;}</style></defs><title>ft_vk</title><g id="Слой_2" data-name="Слой 2"><g id="Слой_1-2" data-name="Слой 1"><g class="cls-1"><circle class="cls-2" cx="12.82" cy="12.81" r="12.82"/></g><g class="cls-3"><path class="cls-4" d="M14.09,10.83c0,.39,0,.78,0,1.17a1.16,1.16,0,0,0,.09.4.28.28,0,0,0,.5.12,4.56,4.56,0,0,0,.84-1.07,10,10,0,0,0,.92-1.82l.07-.15a.37.37,0,0,1,.36-.21h2.25a1,1,0,0,1,.3.05.26.26,0,0,1,.21.37,2.49,2.49,0,0,1-.22.57,11.68,11.68,0,0,1-1.06,1.57c-.25.33-.5.67-.74,1a.57.57,0,0,0,.07.83c.22.23.45.44.67.67s.62.65.92,1a1.42,1.42,0,0,1,.34.61c.08.32-.05.48-.37.54a1.42,1.42,0,0,1-.29,0c-.6,0-1.2,0-1.8,0a1.26,1.26,0,0,1-.83-.32c-.27-.24-.51-.51-.76-.77s-.35-.35-.52-.53l-.13-.09a.36.36,0,0,0-.51.07,1,1,0,0,0-.26.59,5.48,5.48,0,0,0-.05.57.41.41,0,0,1-.4.43,4.88,4.88,0,0,1-2.56-.35,5.69,5.69,0,0,1-2-1.53,19.84,19.84,0,0,1-2.64-4.4c-.06-.14-.13-.27-.19-.41a1.21,1.21,0,0,1,0-.14.27.27,0,0,1,.21-.37,1.36,1.36,0,0,1,.29,0H8.54a.6.6,0,0,1,.58.38c.32.66.65,1.33,1,2a2.71,2.71,0,0,0,.7.91.4.4,0,0,0,.37.12.28.28,0,0,0,.15-.11,1.35,1.35,0,0,0,.17-.56,5.9,5.9,0,0,0,0-1.78.68.68,0,0,0-.24-.52,2.11,2.11,0,0,0-.43-.2c-.1,0-.12-.05-.05-.14A.86.86,0,0,1,11.31,9a7.45,7.45,0,0,1,2.26,0c.38.06.5.19.54.6a8,8,0,0,1,0,1v.26Z"/></g></g></g></svg>