<svg xmlns="http://www.w3.org/2000/svg" viewBox="0 0 50.08 50.08"><defs><style>.cls-1{fill:#c3e86c;}.cls-2{fill:#fff;}</style></defs><title>in</title><g id="Слой_2" data-name="Слой 2"><g id="Слой_1-2" data-name="Слой 1"><rect class="cls-1" width="50.08" height="50.08"/><path class="cls-2" d="M36.42,34.41H31.59c0-1.74,0-3.43,0-5.11,0-1.22,0-2.44-.11-3.65a2.29,2.29,0,0,0-2.28-2.37,2.64,2.64,0,0,0-2.71,2.51c-.06,2.31,0,4.63,0,7v1.65H21.57V19.82H26.4v1.86c.27-.26.39-.35.49-.47a5.08,5.08,0,0,1,5.32-1.63,4.91,4.91,0,0,1,3.92,3.92,6.54,6.54,0,0,1,.27,1.57C36.43,28.16,36.42,31.24,36.42,34.41Z"/><path class="cls-2" d="M14,19.81h4.76V34.4H14Z"/><circle class="cls-2" cx="16.36" cy="15.2" r="2.51"/></g></g></svg>