<svg xmlns="http://www.w3.org/2000/svg" viewBox="0 0 22.57 21.71"><defs><style>.cls-1{fill:#fff;}</style></defs><title>in_icon</title><g id="Слой_2" data-name="Слой 2"><g id="Слой_1-2" data-name="Слой 1"><path class="cls-1" d="M22.57,21.71H17.74c0-1.73,0-3.42,0-5.1,0-1.22,0-2.44-.12-3.65a2.31,2.31,0,0,0-2.27-2.38,2.65,2.65,0,0,0-2.72,2.52c-.06,2.31,0,4.63,0,6.94V21.7H7.73V7.13h4.82V9c.27-.25.39-.35.49-.46a5.09,5.09,0,0,1,5.32-1.64,4.94,4.94,0,0,1,3.92,3.93,6.46,6.46,0,0,1,.27,1.57C22.58,15.46,22.57,18.55,22.57,21.71Z"/><path class="cls-1" d="M.17,7.12H4.93V21.7H.17Z"/><circle class="cls-1" cx="2.51" cy="2.51" r="2.51"/></g></g></svg>