<svg xmlns="http://www.w3.org/2000/svg" viewBox="0 0 202.32 137.64"><defs><style>.cls-1{fill:#76bd22;}.cls-1,.cls-2,.cls-3,.cls-4{fill-rule:evenodd;}.cls-2{fill:#c3e86c;}.cls-3{fill:#8add66;}.cls-4{fill:#fff;}</style></defs><title>logoРесурс 3</title><g id="Слой_2" data-name="Слой 2"><g id="Слой_1-2" data-name="Слой 1"><path class="cls-1" d="M68.81,28.16a2.37,2.37,0,0,0-.67.59L53.25,43.67c-.72.72-.55.73-1.29,0L39.13,30.81c-.71-.72-.7-.54,0-1.22Q53.55,15.12,68,.66c.9-.91.8-.85,1.62,0Q84.06,15.1,98.48,29.57c.67.67.71.53,0,1.23q-6.43,6.47-12.88,12.91a2.65,2.65,0,0,0-.29.29c-.19.22-.38.27-.6,0s-.3-.31-.46-.46L69.47,28.75A2.66,2.66,0,0,0,68.81,28.16Z"/><path class="cls-2" d="M84.72,93.39,98.9,107.53a3.43,3.43,0,0,1-.62.66Q89.54,117,80.79,125.71q-5.67,5.69-11.31,11.38c-.73.74-.57.72-1.29,0-4.28-4.28-8.62-8.5-12.82-12.86-5.3-5.52-10.8-10.84-16.16-16.3-.1-.1-.19-.2-.29-.29s-.2-.31,0-.49.27-.27.4-.4L52.13,93.9l.29-.29c.24-.3.47-.27.74,0,.85.88,1.72,1.74,2.58,2.6.32.33.63.68.95,1l11.4,11.4a2.5,2.5,0,0,0,.23.23c.62.63.54.58,1.12,0q7.38-7.38,14.73-14.75A6.91,6.91,0,0,0,84.72,93.39Z"/><path class="cls-3" d="M0,68.88a2.46,2.46,0,0,1,.64-.72l25-25.07c1.35-1.34,2.68-2.7,4-4.05.42-.43.44-.43.88,0l13.17,13.2c.49.48.48.49-.09,1.07L29,68c-.79.79-.79.79,0,1.57L43.74,84.28c.66.67.71.55,0,1.24L30.87,98.43l-.29.29c-.2.23-.39.26-.6,0s-.31-.31-.46-.47c-4.87-4.88-9.65-9.86-14.64-14.6S5.4,74.22.6,69.55A2.56,2.56,0,0,1,0,68.88Z"/><path class="cls-4" d="M155.8,85,132.26,58.74l-.17.06V77.17a22,22,0,0,0,.26,4,2.68,2.68,0,0,0,2.54,2.53c.19,0,.43,0,.55.18s-.15.18-.24.19c-.78.06-6.83,0-7.31-.09,0-.25.15-.23.3-.26s.49-.08.72-.14a2.31,2.31,0,0,0,1.83-1.76,8.14,8.14,0,0,0,.32-1.76c.05-1.11.11-2.22.11-3.33,0-6.13,0-12.27,0-18.4a1.91,1.91,0,0,0-.59-1.52c-.49-.47-.93-1-1.39-1.48A4.85,4.85,0,0,0,126.7,54c-.24-.06-.54,0-.69-.3.12-.27.34-.19.51-.19,1.57,0,3.15,0,4.72,0a1.09,1.09,0,0,1,.9.44q11.13,12.43,22.26,24.87l.43.47c.28-.12.16-.34.16-.49q0-9.9,0-19.79c0-.73-.07-1.46-.13-2.19a2.87,2.87,0,0,0-2.64-2.91c-.24-.05-.54.06-.75-.21a40.74,40.74,0,0,1,7.73,0c-.18.29-.48.23-.72.28A2.73,2.73,0,0,0,156,56.82c0,.6,0,1.19,0,1.79q0,12.63,0,25.24A2.34,2.34,0,0,1,155.8,85Z"/><path class="cls-4" d="M124.77,79.21a2.38,2.38,0,0,1-.11,1.12c-.19,1-.42,2-.64,2.94s-.18.85-1,.85H106.47a1.71,1.71,0,0,1-.92-.1c0-.27.24-.23.38-.24a2.93,2.93,0,0,0,2.83-2.91c0-.35,0-.7,0-1.05V57.75a6.16,6.16,0,0,0-.39-2.47,2.39,2.39,0,0,0-2.16-1.48c-.22,0-.48.09-.67-.15.06-.28.28-.19.45-.19h17.5c.25,0,.34.13.34.35,0,1.44,0,2.87,0,4.31,0,0-.06.07-.14.14a1.69,1.69,0,0,1-.21-.81,3.18,3.18,0,0,0-1.9-2.47,5.72,5.72,0,0,0-2.29-.53c-2.25,0-4.5,0-6.75,0-.45,0-.55.19-.55.58q0,6.34,0,12.7c0,.33,0,.59.46.58,2.17-.07,4.35.13,6.51-.14.3,0,.58-.11.88-.17A2.58,2.58,0,0,0,122,65.74c0-.18,0-.39.25-.47.21.08.16.26.16.41v6c0,.11,0,.22,0,.32s-.09.13-.17.14a.18.18,0,0,1-.13-.08c-.06-.15-.1-.3-.15-.46a2.84,2.84,0,0,0-2.62-2.29c-.27,0-.54-.07-.81-.08h-6c-.57,0-.59,0-.59.6q0,5.28,0,10.58a4.06,4.06,0,0,0,.18,1.2A1.78,1.78,0,0,0,114,83.11a62.44,62.44,0,0,0,6.27,0,4.41,4.41,0,0,0,3.85-2.61A4.7,4.7,0,0,1,124.77,79.21Z"/><path class="cls-4" d="M101.23,52.7v6.58c-.39-.17-.34-.5-.39-.72a6.72,6.72,0,0,0-1.72-3.09A5.93,5.93,0,0,0,94,53.71c-3.74.38-5.62,3.51-5.37,7a6.22,6.22,0,0,0,2.64,4.66,37.38,37.38,0,0,0,4,2.43,42.48,42.48,0,0,1,4.58,3,7.08,7.08,0,0,1,2.86,7.46,7.44,7.44,0,0,1-5.42,6,12.33,12.33,0,0,1-8.82-.54,9.05,9.05,0,0,0-1.58-.65c-.62-.13-.84,0-1,.58-.1.28-.15.58-.23.87a.22.22,0,0,1-.24.17c-.12,0-.16-.13-.17-.25V77.67c0-.16,0-.32,0-.48a.19.19,0,0,1,.14-.18.2.2,0,0,1,.25.15c.07.2.13.41.19.62a7.83,7.83,0,0,0,8.06,6,7.16,7.16,0,0,0,3.81-1,5,5,0,0,0,2.32-4,5.91,5.91,0,0,0-2.1-5.3,23.66,23.66,0,0,0-4-2.67c-1.18-.66-2.38-1.31-3.52-2A9.84,9.84,0,0,1,87,65.68a8.35,8.35,0,0,1,2.12-11,9.86,9.86,0,0,1,7.47-1.79,12.18,12.18,0,0,1,2.46.56c1.1.36,1.26.3,1.93-.67C101,52.75,101.08,52.75,101.23,52.7Z"/><path class="cls-4" d="M162.15,53.6a75.35,75.35,0,0,1,9.74,0c-.07.26-.29.18-.46.21a2.86,2.86,0,0,0-2.77,3.2q0,11.77,0,23.54a3,3,0,0,0,2.86,3.23c.13,0,.28,0,.36.14s-.15.2-.28.2h-9.12a.71.71,0,0,1-.22-.06c0-.27.15-.24.3-.26,2-.31,2.88-1.29,2.89-3.28q0-11.73,0-23.45c0-.11,0-.22,0-.33a2.7,2.7,0,0,0-2.37-2.85C162.79,53.81,162.46,53.91,162.15,53.6Z"/><path class="cls-4" d="M136.14,90.83a1.52,1.52,0,0,1,.09.79v1.54c-.14,0-.21,0-.22-.07A3.5,3.5,0,0,0,133,91a5.45,5.45,0,0,0-3,.32,4.39,4.39,0,0,0-2.7,2.86,8.36,8.36,0,0,0,.25,5.89,4.41,4.41,0,0,0,3.82,2.77,10.69,10.69,0,0,0,2.19,0c1-.11,1.33-.44,1.34-1.46q0-1,0-1.95c0-.9-.13-1-1-1.34-.08,0-.14-.06-.15-.15s0-.09.1-.09h3.3c0,.09,0,.16,0,.17a1.29,1.29,0,0,0-1,1.52c0,.81,0,1.63,0,2.44s0,.82-.75,1a13.86,13.86,0,0,1-4.85.12,6.15,6.15,0,0,1-4.55-8.61,6.08,6.08,0,0,1,5.66-3.83,11.05,11.05,0,0,1,2.75.25A2.49,2.49,0,0,0,136.14,90.83Z"/><path class="cls-4" d="M150.81,93V90.33a1.79,1.79,0,0,0,1.71.63h6.92a2,2,0,0,0,1.76-.53,16.47,16.47,0,0,1,.12,2.59c-.19.06-.21-.07-.23-.17a1.45,1.45,0,0,0-1.34-1.3,17,17,0,0,0-2.76-.09c-.23,0-.34.12-.34.35v.41c0,3,0,6,0,8.94,0,1,.15,1.25,1.17,1.66h-3.43c.9-.24,1-.91,1-1.71,0-3,0-5.91,0-8.86a4,4,0,0,0,0-.49.29.29,0,0,0-.31-.3,20.55,20.55,0,0,0-2.6.05A1.76,1.76,0,0,0,150.81,93Z"/><path class="cls-4" d="M178.14,90.8c-.06,1-.11,1.76-.16,2.57,0,0-.13,0-.14,0a4.45,4.45,0,0,0-7.55-.65,7.29,7.29,0,0,0-.08,8.17,4.54,4.54,0,0,0,4.77,1.73,5.65,5.65,0,0,0,2.75-1.32c.21.23.06.36-.08.48a6,6,0,0,1-6.57.89,5.77,5.77,0,0,1-3.55-5.39,6.42,6.42,0,0,1,5.1-6.55,7.71,7.71,0,0,1,3.31.13l.94.23A1.41,1.41,0,0,0,178.14,90.8Z"/><path class="cls-4" d="M143.18,103v-2.74c.29.21.28.51.38.74a3.2,3.2,0,0,0,4,1.65,2.26,2.26,0,0,0,.69-3.61,5.48,5.48,0,0,0-1.36-1c-.71-.44-1.47-.8-2.16-1.3a3.27,3.27,0,0,1-1-4.2,3.66,3.66,0,0,1,3.73-1.79,6.39,6.39,0,0,1,.87.18.86.86,0,0,0,1-.22v2.31c-.26,0-.22-.29-.29-.43A2.35,2.35,0,0,0,146.82,91a2.19,2.19,0,0,0-2.11,1.38,2.61,2.61,0,0,0,.46,2.88,7.12,7.12,0,0,0,1.53,1.07c.73.41,1.44.85,2.14,1.34a3,3,0,0,1-.82,5.19,4.8,4.8,0,0,1-3.11,0,5.1,5.1,0,0,1-.55-.19C143.64,102.43,143.64,102.43,143.18,103Z"/><path class="cls-4" d="M185.27,90.6v2.09a1.57,1.57,0,0,1,0,.25c-.25-.07-.21-.3-.29-.44A2.35,2.35,0,0,0,182.65,91a2.19,2.19,0,0,0-2.11,1.39,2.57,2.57,0,0,0,.47,2.87,7,7,0,0,0,1.53,1.07,19.62,19.62,0,0,1,2.13,1.35,2.76,2.76,0,0,1,1.11,2.86,2.89,2.89,0,0,1-1.94,2.32,4.74,4.74,0,0,1-3.11,0,4.93,4.93,0,0,1-.54-.19c-.71-.27-.7-.27-1.2.27v-2.75c.31.14.29.45.38.67a3.15,3.15,0,0,0,3.52,1.85,2,2,0,0,0,1.7-1.32,2.38,2.38,0,0,0-.47-2.44,6,6,0,0,0-1.36-1c-.71-.43-1.48-.79-2.16-1.29a3.28,3.28,0,0,1-1-4.21,3.68,3.68,0,0,1,3.73-1.78,5.66,5.66,0,0,1,.8.16A.92.92,0,0,0,185.27,90.6Z"/><path class="cls-4" d="M106.51,91a.57.57,0,0,1-.35.26,1,1,0,0,0-.7,1.08c0,1,0,1.9,0,2.85V101c0,1.11.35,1.45,1.46,1.48.44,0,.87,0,1.3,0a1.8,1.8,0,0,0,1.9-1.11.88.88,0,0,1,.12-.21s.05,0,.07,0,.06.12,0,.18c-.29,1.51-.29,1.51-1.8,1.51h-5.17a1.87,1.87,0,0,0,.8-1.78c0-2.74,0-5.48,0-8.21,0-.87-.16-1.56-1.1-1.87Z"/><path class="cls-4" d="M138.45,91h3.33a.42.42,0,0,1,0,.13c-.87.24-1.05.88-1,1.69,0,2.43,0,4.87,0,7.31,0,.3,0,.59,0,.89a1.81,1.81,0,0,0,.78,1.84h-2.85c.36-.27.7-.47.8-.87a4.27,4.27,0,0,0,.06-1.13c0-2.68,0-5.36,0-8C139.54,91.93,139.36,91.28,138.45,91Z"/><path class="cls-4" d="M165.44,102.28h-2.9c.38-.25.69-.4.82-.72a2.45,2.45,0,0,0,.11-.92c0-2.62,0-5.23,0-7.84,0-.84-.1-1.55-1.09-1.83h3.53c-.49.25-.95.33-1.11.75a3.18,3.18,0,0,0-.13,1.15v7.76A1.67,1.67,0,0,0,165.44,102.28Z"/><path class="cls-4" d="M83.37,83.86a1.71,1.71,0,0,0-.3-.09,3.2,3.2,0,0,1-2.65-1.9,15.2,15.2,0,0,1-1-2.3l-9-25.79c-.33-.92-.27-.78-1.07-.77-1.8,0-1.33-.33-1.9,1.4-2.78,8.39-5.52,16.78-8.28,25.18a11.62,11.62,0,0,1-1,2.23,3.83,3.83,0,0,1-2.68,1.94c-.15,0-.34,0-.32.3h7.1c-.22-.36-.53-.26-.8-.31a1.68,1.68,0,0,1-1.6-1.82,5.63,5.63,0,0,1,.28-2.08c.82-2.59,1.65-5.16,2.47-7.75a.63.63,0,0,1,.68-.53c3.2,0,6.4,0,9.6,0a.63.63,0,0,1,.7.51Q75,76.3,76.37,80.49a5.08,5.08,0,0,1,.26,1.44,1.48,1.48,0,0,1-1.35,1.71,7.07,7.07,0,0,1-1.45.15c-.15,0-.35,0-.36.21a.4.4,0,0,0,.37.12c3.17,0,6.34.07,9.51-.06,0,0,0,0,.05,0a.28.28,0,0,0,0-.09S83.39,83.87,83.37,83.86ZM63.13,70.51c1.57-4.86,3.1-9.68,4.64-14.49L68,56c1.65,4.8,3.28,9.61,5,14.47Z"/><path class="cls-4" d="M202,83.77a3.2,3.2,0,0,1-2.71-1.94,15.24,15.24,0,0,1-1-2.23q-3.33-9.52-6.67-19c-.81-2.32-1.64-4.65-2.43-7-.15-.44-.35-.65-.82-.57-.1,0-.21,0-.32,0-1.62,0-1.22-.29-1.74,1.29q-4.16,12.58-8.27,25.18a11,11,0,0,1-1,2.38,3.85,3.85,0,0,1-2.62,1.9c-.14,0-.34,0-.36.22s.16.14.26.14h6.59c.13,0,.28,0,.27-.22-.26-.2-.57-.1-.86-.16A1.66,1.66,0,0,1,178.75,82a6.34,6.34,0,0,1,.32-2.24q1.22-3.8,2.42-7.59a.67.67,0,0,1,.74-.56c3.18,0,6.35,0,9.53,0a.63.63,0,0,1,.71.48c.93,2.86,1.89,5.71,2.83,8.57a4.1,4.1,0,0,1,.23,1.44,1.45,1.45,0,0,1-1.32,1.58,7.07,7.07,0,0,1-1.45.15c-.15,0-.33,0-.38.18a90.67,90.67,0,0,0,9.94.06C202.28,83.78,202.13,83.78,202,83.77ZM182.18,70.53c0-.6,4-13.23,4.63-14.64l5,14.64Z"/><path class="cls-4" d="M117.48,90.58a6.31,6.31,0,0,0-.06,12.61,6.34,6.34,0,0,0,6.34-6.28A6.28,6.28,0,0,0,117.48,90.58Zm4.3,9.43a4.7,4.7,0,0,1-8.48.31,7.47,7.47,0,0,1-.73-4,6.82,6.82,0,0,1,.7-2.82,4.71,4.71,0,0,1,8.52.33,7.07,7.07,0,0,1,.5,3.13A6.68,6.68,0,0,1,121.78,100Z"/></g></g></svg>