<svg xmlns="http://www.w3.org/2000/svg" viewBox="0 0 14.43 10.62"><defs><style>.cls-1{fill:#c3e86c;fill-rule:evenodd;}</style></defs><title>marker_avia</title><g id="Слой_2" data-name="Слой 2"><g id="Слой_1-2" data-name="Слой 1"><path class="cls-1" d="M11,0c1.15,1.15,2.28,2.27,3.4,3.4a1,1,0,0,1-.14.15l-4.2,4.21L7.37,10.49c-.17.18-.14.18-.31,0C6,9.47,5,8.45,4,7.41,2.71,6.08,1.39,4.8.1,3.49A.46.46,0,0,0,0,3.42a.07.07,0,0,1,0-.11l.09-.1L3.21.12,3.28.05c.05-.07.11-.06.17,0l.62.63L4.3.92,7,3.66l0,0c.15.15.13.14.27,0L10.9.17A1,1,0,0,0,11,0Z"/></g></g></svg>