<svg xmlns="http://www.w3.org/2000/svg" viewBox="0 0 50.08 50.03"><defs><style>.cls-1{fill:#c3e86c;}.cls-2{fill:#fff;fill-rule:evenodd;}</style></defs><title>ok</title><g id="Слой_2" data-name="Слой 2"><g id="Слой_1-2" data-name="Слой 1"><rect class="cls-1" width="50.08" height="50.03"/><path class="cls-2" d="M26.19,29.6c1.13,1.06,2.26,2.13,3.41,3.19.84.78,1.2,1.63.26,2.52s-1.7.39-2.41-.36l-2.89-3.08c-1,1.17-1.89,2.2-2.8,3.2a1.46,1.46,0,0,1-2.29.25,1.53,1.53,0,0,1,.11-2.44c1.16-1.13,2.36-2.22,3.53-3.31-1.56-.71-2.87-1.21-4.08-1.89-.91-.51-1.53-1.36-.79-2.45s1.57-.72,2.44-.19a7.07,7.07,0,0,0,8,0c.88-.55,1.77-.74,2.43.25a1.51,1.51,0,0,1-.71,2.33C29.14,28.28,27.8,28.84,26.19,29.6Z"/><path class="cls-2" d="M24.62,24.84A5.54,5.54,0,0,1,19,19.17a5.54,5.54,0,0,1,5.72-5.63,5.65,5.65,0,1,1-.05,11.3Zm0-8.21A2.76,2.76,0,0,0,22,19.15a2.86,2.86,0,0,0,2.64,2.65,2.66,2.66,0,0,0,2.5-2.56A2.57,2.57,0,0,0,24.6,16.63Z"/></g></g></svg>