<svg xmlns="http://www.w3.org/2000/svg" viewBox="0 0 13.51 22.23"><defs><style>.cls-1{fill:#fff;fill-rule:evenodd;}</style></defs><title>ok_icon</title><g id="Слой_2" data-name="Слой 2"><g id="Слой_1-2" data-name="Слой 1"><path class="cls-1" d="M8.28,16.06c1.13,1.06,2.26,2.14,3.4,3.2.85.77,1.2,1.62.26,2.51s-1.69.39-2.4-.36c-.86-.91-1.72-1.82-2.89-3.08-1,1.17-1.9,2.2-2.8,3.21a1.47,1.47,0,0,1-2.3.24,1.53,1.53,0,0,1,.12-2.43C2.83,18.21,4,17.13,5.2,16c-1.57-.71-2.87-1.2-4.08-1.88-.91-.52-1.53-1.37-.8-2.45S1.9,11,2.76,11.51a7.12,7.12,0,0,0,8,0c.88-.56,1.76-.75,2.42.24a1.5,1.5,0,0,1-.7,2.33C11.22,14.74,9.89,15.3,8.28,16.06Z"/><path class="cls-1" d="M6.71,11.3A5.53,5.53,0,0,1,1,5.63,5.54,5.54,0,0,1,6.76,0a5.62,5.62,0,0,1,5.7,5.68A5.58,5.58,0,0,1,6.71,11.3Zm0-8.21A2.78,2.78,0,0,0,4.12,5.62,2.84,2.84,0,0,0,6.77,8.26a2.65,2.65,0,0,0,2.5-2.55A2.6,2.6,0,0,0,6.69,3.09Z"/></g></g></svg>